{
    "asset" : {
        "generator" : "Khronos glTF Blender I/O v1.2.75",
        "version" : "2.0"
    },
    "scene" : 0,
    "scenes" : [
        {
            "name" : "Scene",
            "nodes" : [
                0,
                1,
                2,
                3,
                4,
                5,
                6,
                7,
                8,
                9,
                10
            ]
        }
    ],
    "nodes" : [
        {
            "name" : "Light",
            "rotation" : [
                0.16907575726509094,
                0.7558803558349609,
                -0.27217137813568115,
                0.570947527885437
            ],
            "translation" : [
                4.076245307922363,
                5.903861999511719,
                -1.0054539442062378
            ]
        },
        {
            "name" : "Camera",
            "rotation" : [
                0.483536034822464,
                0.33687159419059753,
                -0.20870360732078552,
                0.7804827094078064
            ],
            "translation" : [
                7.358891487121582,
                4.958309173583984,
                6.925790786743164
            ]
        },
        {
            "mesh" : 0,
            "name" : "1S",
            "rotation" : [
                0.7071067690849304,
                0,
                0,
                0.7071067690849304
            ]
        },
        {
            "mesh" : 1,
            "name" : "2e",
            "rotation" : [
                0.7071067690849304,
                0,
                0,
                0.7071067690849304
            ]
        },
        {
            "mesh" : 2,
            "name" : "3a",
            "rotation" : [
                0.7071067690849304,
                0,
                0,
                0.7071067690849304
            ]
        },
        {
            "mesh" : 3,
            "name" : "4B",
            "rotation" : [
                0.7071067690849304,
                0,
                0,
                0.7071067690849304
            ]
        },
        {
            "mesh" : 4,
            "name" : "5a",
            "rotation" : [
                0.7071067690849304,
                0,
                0,
                0.7071067690849304
            ]
        },
        {
            "mesh" : 5,
            "name" : "6t",
            "rotation" : [
                0.7071067690849304,
                0,
                0,
                0.7071067690849304
            ]
        },
        {
            "mesh" : 6,
            "name" : "7t",
            "rotation" : [
                0.7071067690849304,
                0,
                0,
                0.7071067690849304
            ]
        },
        {
            "mesh" : 7,
            "name" : "8l",
            "rotation" : [
                0.7071067690849304,
                0,
                0,
                0.7071067690849304
            ]
        },
        {
            "mesh" : 8,
            "name" : "9e",
            "rotation" : [
                0.7071067690849304,
                0,
                0,
                0.7071067690849304
            ]
        }
    ],
    "meshes" : [
        {
            "name" : "Text.011",
            "primitives" : [
                {
                    "attributes" : {
                        "POSITION" : 0,
                        "NORMAL" : 1,
                        "TEXCOORD_0" : 2
                    },
                    "indices" : 3
                }
            ]
        },
        {
            "name" : "Text.012",
            "primitives" : [
                {
                    "attributes" : {
                        "POSITION" : 4,
                        "NORMAL" : 5,
                        "TEXCOORD_0" : 6
                    },
                    "indices" : 7
                }
            ]
        },
        {
            "name" : "Text.013",
            "primitives" : [
                {
                    "attributes" : {
                        "POSITION" : 8,
                        "NORMAL" : 9,
                        "TEXCOORD_0" : 10
                    },
                    "indices" : 11
                }
            ]
        },
        {
            "name" : "Text.014",
            "primitives" : [
                {
                    "attributes" : {
                        "POSITION" : 12,
                        "NORMAL" : 13,
                        "TEXCOORD_0" : 14
                    },
                    "indices" : 15
                }
            ]
        },
        {
            "name" : "Text.015",
            "primitives" : [
                {
                    "attributes" : {
                        "POSITION" : 16,
                        "NORMAL" : 17,
                        "TEXCOORD_0" : 18
                    },
                    "indices" : 19
                }
            ]
        },
        {
            "name" : "Text.016",
            "primitives" : [
                {
                    "attributes" : {
                        "POSITION" : 20,
                        "NORMAL" : 21,
                        "TEXCOORD_0" : 22
                    },
                    "indices" : 23
                }
            ]
        },
        {
            "name" : "Text.017",
            "primitives" : [
                {
                    "attributes" : {
                        "POSITION" : 24,
                        "NORMAL" : 25,
                        "TEXCOORD_0" : 26
                    },
                    "indices" : 27
                }
            ]
        },
        {
            "name" : "Text.018",
            "primitives" : [
                {
                    "attributes" : {
                        "POSITION" : 28,
                        "NORMAL" : 29,
                        "TEXCOORD_0" : 30
                    },
                    "indices" : 31
                }
            ]
        },
        {
            "name" : "Text.019",
            "primitives" : [
                {
                    "attributes" : {
                        "POSITION" : 32,
                        "NORMAL" : 33,
                        "TEXCOORD_0" : 34
                    },
                    "indices" : 35
                }
            ]
        }
    ],
    "accessors" : [
        {
            "bufferView" : 0,
            "componentType" : 5126,
            "count" : 4954,
            "max" : [
                -1.2465611696243286,
                0.10999999195337296,
                0.018865805119276047
            ],
            "min" : [
                -1.6743329763412476,
                -0.10999999195337296,
                -0.5183544158935547
            ],
            "type" : "VEC3"
        },
        {
            "bufferView" : 1,
            "componentType" : 5126,
            "count" : 4954,
            "type" : "VEC3"
        },
        {
            "bufferView" : 2,
            "componentType" : 5126,
            "count" : 4954,
            "type" : "VEC2"
        },
        {
            "bufferView" : 3,
            "componentType" : 5123,
            "count" : 24324,
            "type" : "SCALAR"
        },
        {
            "bufferView" : 4,
            "componentType" : 5126,
            "count" : 2889,
            "max" : [
                -0.8520841002464294,
                0.10999999195337296,
                0.01818545162677765
            ],
            "min" : [
                -1.2103090286254883,
                -0.10999999195337296,
                -0.3802735209465027
            ],
            "type" : "VEC3"
        },
        {
            "bufferView" : 5,
            "componentType" : 5126,
            "count" : 2889,
            "type" : "VEC3"
        },
        {
            "bufferView" : 6,
            "componentType" : 5126,
            "count" : 2889,
            "type" : "VEC2"
        },
        {
            "bufferView" : 7,
            "componentType" : 5123,
            "count" : 14040,
            "type" : "SCALAR"
        },
        {
            "bufferView" : 8,
            "componentType" : 5126,
            "count" : 5252,
            "max" : [
                -0.45347362756729126,
                0.10999999195337296,
                0.018184561282396317
            ],
            "min" : [
                -0.8192425966262817,
                -0.10999999195337296,
                -0.3802700936794281
            ],
            "type" : "VEC3"
        },
        {
            "bufferView" : 9,
            "componentType" : 5126,
            "count" : 5252,
            "type" : "VEC3"
        },
        {
            "bufferView" : 10,
            "componentType" : 5126,
            "count" : 5252,
            "type" : "VEC2"
        },
        {
            "bufferView" : 11,
            "componentType" : 5123,
            "count" : 25416,
            "type" : "SCALAR"
        },
        {
            "bufferView" : 12,
            "componentType" : 5126,
            "count" : 4405,
            "max" : [
                0.228038489818573,
                0.10999999195337296,
                0.009999999776482582
            ],
            "min" : [
                -0.21064776182174683,
                -0.10999999195337296,
                -0.5098295211791992
            ],
            "type" : "VEC3"
        },
        {
            "bufferView" : 13,
            "componentType" : 5126,
            "count" : 4405,
            "type" : "VEC3"
        },
        {
            "bufferView" : 14,
            "componentType" : 5126,
            "count" : 4405,
            "type" : "VEC2"
        },
        {
            "bufferView" : 15,
            "componentType" : 5123,
            "count" : 21396,
            "type" : "SCALAR"
        },
        {
            "bufferView" : 16,
            "componentType" : 5126,
            "count" : 5233,
            "max" : [
                0.6331270933151245,
                0.10999999195337296,
                0.018184561282396317
            ],
            "min" : [
                0.2673581838607788,
                -0.10999999195337296,
                -0.3802700936794281
            ],
            "type" : "VEC3"
        },
        {
            "bufferView" : 17,
            "componentType" : 5126,
            "count" : 5233,
            "type" : "VEC3"
        },
        {
            "bufferView" : 18,
            "componentType" : 5126,
            "count" : 5233,
            "type" : "VEC2"
        },
        {
            "bufferView" : 19,
            "componentType" : 5123,
            "count" : 25416,
            "type" : "SCALAR"
        },
        {
            "bufferView" : 20,
            "componentType" : 5126,
            "count" : 1767,
            "max" : [
                0.8755813241004944,
                0.10999999195337296,
                0.0181837510317564
            ],
            "min" : [
                0.6413808465003967,
                -0.10999999195337296,
                -0.5073257088661194
            ],
            "type" : "VEC3"
        },
        {
            "bufferView" : 21,
            "componentType" : 5126,
            "count" : 1767,
            "type" : "VEC3"
        },
        {
            "bufferView" : 22,
            "componentType" : 5126,
            "count" : 1767,
            "type" : "VEC2"
        },
        {
            "bufferView" : 23,
            "componentType" : 5123,
            "count" : 8628,
            "type" : "SCALAR"
        },
        {
            "bufferView" : 24,
            "componentType" : 5126,
            "count" : 1773,
            "max" : [
                1.1081079244613647,
                0.10999999195337296,
                0.0181837510317564
            ],
            "min" : [
                0.8739073872566223,
                -0.10999999195337296,
                -0.5073257088661194
            ],
            "type" : "VEC3"
        },
        {
            "bufferView" : 25,
            "componentType" : 5126,
            "count" : 1773,
            "type" : "VEC3"
        },
        {
            "bufferView" : 26,
            "componentType" : 5126,
            "count" : 1773,
            "type" : "VEC2"
        },
        {
            "bufferView" : 27,
            "componentType" : 5123,
            "count" : 8628,
            "type" : "SCALAR"
        },
        {
            "bufferView" : 28,
            "componentType" : 5126,
            "count" : 68,
            "max" : [
                1.2617899179458618,
                0.10999999195337296,
                0.009999999776482582
            ],
            "min" : [
                1.1459835767745972,
                -0.10999999195337296,
                -0.5098295211791992
            ],
            "type" : "VEC3"
        },
        {
            "bufferView" : 29,
            "componentType" : 5126,
            "count" : 68,
            "type" : "VEC3"
        },
        {
            "bufferView" : 30,
            "componentType" : 5126,
            "count" : 68,
            "type" : "VEC2"
        },
        {
            "bufferView" : 31,
            "componentType" : 5123,
            "count" : 276,
            "type" : "SCALAR"
        },
        {
            "bufferView" : 32,
            "componentType" : 5126,
            "count" : 2917,
            "max" : [
                1.6702477931976318,
                0.10999999195337296,
                0.01818545162677765
            ],
            "min" : [
                1.3120229244232178,
                -0.10999999195337296,
                -0.3802735209465027
            ],
            "type" : "VEC3"
        },
        {
            "bufferView" : 33,
            "componentType" : 5126,
            "count" : 2917,
            "type" : "VEC3"
        },
        {
            "bufferView" : 34,
            "componentType" : 5126,
            "count" : 2917,
            "type" : "VEC2"
        },
        {
            "bufferView" : 35,
            "componentType" : 5123,
            "count" : 14040,
            "type" : "SCALAR"
        }
    ],
    "bufferViews" : [
        {
            "buffer" : 0,
            "byteLength" : 59448,
            "byteOffset" : 0
        },
        {
            "buffer" : 0,
            "byteLength" : 59448,
            "byteOffset" : 59448
        },
        {
            "buffer" : 0,
            "byteLength" : 39632,
            "byteOffset" : 118896
        },
        {
            "buffer" : 0,
            "byteLength" : 48648,
            "byteOffset" : 158528
        },
        {
            "buffer" : 0,
            "byteLength" : 34668,
            "byteOffset" : 207176
        },
        {
            "buffer" : 0,
            "byteLength" : 34668,
            "byteOffset" : 241844
        },
        {
            "buffer" : 0,
            "byteLength" : 23112,
            "byteOffset" : 276512
        },
        {
            "buffer" : 0,
            "byteLength" : 28080,
            "byteOffset" : 299624
        },
        {
            "buffer" : 0,
            "byteLength" : 63024,
            "byteOffset" : 327704
        },
        {
            "buffer" : 0,
            "byteLength" : 63024,
            "byteOffset" : 390728
        },
        {
            "buffer" : 0,
            "byteLength" : 42016,
            "byteOffset" : 453752
        },
        {
            "buffer" : 0,
            "byteLength" : 50832,
            "byteOffset" : 495768
        },
        {
            "buffer" : 0,
            "byteLength" : 52860,
            "byteOffset" : 546600
        },
        {
            "buffer" : 0,
            "byteLength" : 52860,
            "byteOffset" : 599460
        },
        {
            "buffer" : 0,
            "byteLength" : 35240,
            "byteOffset" : 652320
        },
        {
            "buffer" : 0,
            "byteLength" : 42792,
            "byteOffset" : 687560
        },
        {
            "buffer" : 0,
            "byteLength" : 62796,
            "byteOffset" : 730352
        },
        {
            "buffer" : 0,
            "byteLength" : 62796,
            "byteOffset" : 793148
        },
        {
            "buffer" : 0,
            "byteLength" : 41864,
            "byteOffset" : 855944
        },
        {
            "buffer" : 0,
            "byteLength" : 50832,
            "byteOffset" : 897808
        },
        {
            "buffer" : 0,
            "byteLength" : 21204,
            "byteOffset" : 948640
        },
        {
            "buffer" : 0,
            "byteLength" : 21204,
            "byteOffset" : 969844
        },
        {
            "buffer" : 0,
            "byteLength" : 14136,
            "byteOffset" : 991048
        },
        {
            "buffer" : 0,
            "byteLength" : 17256,
            "byteOffset" : 1005184
        },
        {
            "buffer" : 0,
            "byteLength" : 21276,
            "byteOffset" : 1022440
        },
        {
            "buffer" : 0,
            "byteLength" : 21276,
            "byteOffset" : 1043716
        },
        {
            "buffer" : 0,
            "byteLength" : 14184,
            "byteOffset" : 1064992
        },
        {
            "buffer" : 0,
            "byteLength" : 17256,
            "byteOffset" : 1079176
        },
        {
            "buffer" : 0,
            "byteLength" : 816,
            "byteOffset" : 1096432
        },
        {
            "buffer" : 0,
            "byteLength" : 816,
            "byteOffset" : 1097248
        },
        {
            "buffer" : 0,
            "byteLength" : 544,
            "byteOffset" : 1098064
        },
        {
            "buffer" : 0,
            "byteLength" : 552,
            "byteOffset" : 1098608
        },
        {
            "buffer" : 0,
            "byteLength" : 35004,
            "byteOffset" : 1099160
        },
        {
            "buffer" : 0,
            "byteLength" : 35004,
            "byteOffset" : 1134164
        },
        {
            "buffer" : 0,
            "byteLength" : 23336,
            "byteOffset" : 1169168
        },
        {
            "buffer" : 0,
            "byteLength" : 28080,
            "byteOffset" : 1192504
        }
    ],
    "buffers" : [
        {
            "byteLength" : 1220584,
            "uri" : "data:application/octet-stream;base64,"
        }
    ]
}
